<?xml version="1.0" encoding="utf-8"?>
<svg width="1000px" height="1000px" version="1.1" style="shape-rendering:geometricPrecision; text-rendering:geometricPrecision; image-rendering:optimizeQuality; fill-rule:evenodd; clip-rule:evenodd" viewBox="0 0 1000 1000" id="svg245" xmlns="http://www.w3.org/2000/svg" xmlns:bx="https://boxy-svg.com">
  <defs id="defs239">
    <style type="text/css" id="style237">

    .str0 {stroke:#373435;stroke-width:2.36;stroke-miterlimit:22.9256}
    .fil0 {fill:none}

  </style>
    <bx:export>
      <bx:file format="svg"/>
    </bx:export>
  </defs>
  <g id="Layer_x0020_1" style="display: none; opacity: 0.442982;"/>
  <g transform="matrix(0.230378, 0, 0, -0.229893, -1116.101685, 1351.75354)" fill="#000000" stroke="none" style="">
    <path d="M4987 4733 c-4 -3 -7 -469 -7 -1035 l0 -1028 545 0 544 0 3 128 3 127 215 2 c118 1 220 3 226 3 6 0 41 43 78 95 37 52 71 97 76 100 4 3 55 -10 112 -29 56 -19 129 -38 161 -41 l57 -7 0 -152 c0 -121 3 -156 16 -174 18 -26 37 -28 58 -6 13 13 16 43 16 173 l0 157 77 13 c42 7 115 26 161 43 63 22 87 27 96 18 6 -6 43 -52 81 -103 l70 -92 188 -2 189 -2 2 -73 c2 -40 4 -97 5 -125 l1 -53 545 0 545 0 -2 1033 -3 1032 -542 3 -542 2 -3 -132 -3 -133 -132 -3 -132 -3 -86 -122 c-47 -67 -106 -150 -130 -184 l-44 -62 -64 29 c-67 30 -150 54 -229 65 l-48 6 0 144 c0 168 -7 198 -48 193 l-27 -3 -3 -166 -2 -166 -77 -13 c-77 -12 -204 -50 -255 -76 -30 -16 -22 -25 -197 233 l-83 123 -162 2 -161 3 -3 133 -3 132 -538 0 c-296 0 -541 -3 -544 -7z m503 -283 l0 -210 -215 0 -215 0 0 210 0 210 215 0 215 0 0 -210z m510 0 l0 -210 -215 0 -215 0 0 210 0 210 215 0 215 0 0 -210z m2970 0 l0 -210 -215 0 -215 0 0 210 0 210 215 0 215 0 0 -210z m-2503 -224 l110 -163 -88 -63 c-87 -61 -250 -221 -299 -292 -21 -31 -31 -37 -68 -40 -24 -2 -45 -1 -48 1 -2 2 -4 166 -4 363 l0 358 143 0 143 0 111 -164z m1493 -170 c0 -338 -3 -396 -24 -396 -6 0 -27 24 -46 52 -53 79 -205 228 -297 292 -46 32 -83 60 -83 63 0 3 50 76 111 164 l111 159 114 0 114 0 0 -334z m-2470 -101 l0 -215 -215 0 -215 0 0 215 0 215 215 0 215 0 0 -215z m508 -2 l2 -213 -215 0 -215 0 0 215 0 215 213 -2 212 -3 3 -212z m2462 2 l0 -215 -215 0 -215 0 0 208 c0 115 3 212 7 215 3 4 100 7 215 7 l208 0 0 -215z m-1260 66 c30 -11 68 -32 85 -45 l29 -23 -54 -64 c-30 -35 -55 -65 -56 -67 0 -1 -21 9 -46 23 -56 31 -120 41 -177 25 l-44 -11 34 -28 c28 -24 34 -35 34 -70 0 -57 -39 -96 -96 -96 -32 0 -46 6 -65 28 -12 15 -25 27 -28 27 -3 0 -10 -19 -17 -42 -14 -52 -6 -115 21 -168 l20 -39 -50 -61 c-28 -33 -54 -60 -59 -60 -29 0 -87 119 -102 209 -35 210 110 428 318 481 61 15 191 5 253 -19z m-578 -103 c-70 -107 -87 -169 -86 -303 0 -88 5 -121 22 -165 21 -53 63 -129 98 -177 9 -13 12 -23 6 -23 -17 0 -163 100 -225 155 -69 60 -187 197 -187 217 0 24 142 179 230 251 80 65 180 130 188 123 2 -2 -19 -37 -46 -78z m903 21 c87 -59 211 -177 275 -261 l42 -58 -18 -27 c-41 -64 -214 -228 -297 -284 -118 -79 -128 -79 -73 -2 83 117 111 212 104 349 -6 102 -29 171 -88 263 -22 34 -40 64 -40 66 0 13 25 1 95 -46z m-126 -77 c45 -64 65 -133 65 -232 1 -110 -21 -182 -79 -262 -116 -159 -347 -212 -527 -122 -26 13 -49 28 -53 34 -10 16 86 132 104 126 9 -2 34 -12 56 -20 130 -49 282 26 321 160 18 64 14 124 -12 180 l-16 34 38 46 c22 25 46 54 54 64 20 26 25 25 49 -8z m-1436 -198 l37 -7 0 -208 0 -209 -215 0 -215 0 0 215 0 215 178 0 c97 0 194 -3 215 -6z m2497 -214 l0 -210 -215 0 -215 0 0 210 0 210 215 0 215 0 0 -210z m510 0 l0 -210 -215 0 -215 0 0 210 0 210 215 0 215 0 0 -210z m-2746 44 c81 -101 200 -208 303 -274 l74 -47 -61 -82 -60 -81 -205 0 -205 0 0 285 0 285 43 0 c41 0 44 -3 111 -86z m1731 -202 l0 -287 -165 -2 c-91 -2 -170 0 -175 5 -14 10 -127 163 -123 166 1 1 44 29 93 61 98 64 248 209 305 293 64 94 65 88 65 -236z m-2465 -342 l0 -210 -215 0 -215 0 0 210 0 210 215 0 215 0 0 -210z m3480 6 l0 -204 -37 -5 c-21 -2 -118 -5 -215 -6 l-178 -2 0 211 0 210 215 0 215 0 0 -204z" style="fill: rgb(128, 128, 128);"/>
  </g>
</svg>
